<!DOCTYPE svg PUBLIC "-//W3C//DTD SVG 1.1//EN" "http://www.w3.org/Graphics/SVG/1.1/DTD/svg11.dtd">
<!-- Uploaded to: SVG Repo, www.svgrepo.com, Transformed by: SVG Repo Mixer Tools -->
<svg fill="#475569" height="800px" width="800px" id="Layer_1" data-name="Layer 1" xmlns="http://www.w3.org/2000/svg" viewBox="0 0 16 16">
<g id="SVGRepo_bgCarrier" stroke-width="0"/>
<g id="SVGRepo_tracerCarrier" stroke-linecap="round" stroke-linejoin="round"/>
<g id="SVGRepo_iconCarrier"> <path class="cls-1" d="M6.5,11A1.5,1.5,0,1,1,5,9.5,1.5,1.5,0,0,1,6.5,11ZM5,3.5A1.5,1.5,0,1,0,6.5,5,1.5,1.5,0,0,0,5,3.5ZM12.5,11A1.5,1.5,0,1,1,11,9.5,1.5,1.5,0,0,1,12.5,11ZM11,3.5A1.5,1.5,0,1,0,12.5,5,1.5,1.5,0,0,0,11,3.5Z"/> </g>
</svg>